<svg width="40" height="40" viewBox="0 0 40 40" fill="none" xmlns="http://www.w3.org/2000/svg">
<rect x="0.5" y="0.5" width="39" height="39" rx="15.5" fill="#050926" fill-opacity="0.5" stroke="white"/>
<rect x="27.5" y="12.5" width="15" height="15" transform="rotate(90 27.5 12.5)" stroke="black"/>
<path d="M17.0111 19.9489C17.0111 20.0861 17.0381 20.222 17.0906 20.3488C17.1431 20.4756 17.2201 20.5908 17.3171 20.6879L21.2171 24.5879C21.413 24.7838 21.6786 24.8938 21.9556 24.8938C22.2326 24.8938 22.4982 24.7838 22.6941 24.5879C22.89 24.392 23 24.1264 23 23.8494C23 23.5724 22.89 23.3068 22.6941 23.1109L20.2941 19.9469L22.6941 16.7829C22.89 16.587 23 16.3214 23 16.0444C23 15.7674 22.89 15.5017 22.6941 15.3059C22.4982 15.11 22.2326 15 21.9556 15C21.6786 15 21.413 15.11 21.2171 15.3059L17.3171 19.2059C17.2196 19.3034 17.1423 19.4193 17.0898 19.5468C17.0372 19.6743 17.0105 19.811 17.0111 19.9489Z" fill="white"/>
</svg>
