<svg width="78" height="79" viewBox="0 0 78 79" fill="none" xmlns="http://www.w3.org/2000/svg">
<g filter="url(#filter0_dd_7_128)">
<rect x="19.5" y="18.5" width="44" height="44" rx="22" fill="url(#paint0_linear_7_128)"/>
<rect x="19.5" y="18.5" width="44" height="44" rx="22" stroke="url(#paint1_linear_7_128)"/>
<foreignObject x="-47.6667" y="-48.6667" width="178.324" height="178.333"><div xmlns="http://www.w3.org/1999/xhtml" style="backdrop-filter:blur(40px);clip-path:url(#bgblur_0_7_128_clip_path);height:100%;width:100%"></div></foreignObject><g filter="url(#filter1_dii_7_128)" data-figma-bg-blur-radius="80">
<path d="M45.3408 31.3333H37.6591C34.3225 31.3333 32.3333 33.3225 32.3333 36.6591V44.3316C32.3333 47.6775 34.3225 49.6666 37.6591 49.6666H45.3316C48.6683 49.6666 50.6575 47.6775 50.6575 44.3408V36.6591C50.6666 33.3225 48.6775 31.3333 45.3408 31.3333Z" fill="white" fill-opacity="0.2" shape-rendering="crispEdges"/>
</g>
<path d="M44.9375 38.4375H38.0625C37.6867 38.4375 37.375 38.1258 37.375 37.75C37.375 37.3742 37.6867 37.0625 38.0625 37.0625H44.9375C45.3133 37.0625 45.625 37.3742 45.625 37.75C45.625 38.1258 45.3133 38.4375 44.9375 38.4375Z" fill="white"/>
<path d="M44.9375 43.9375H38.0625C37.6867 43.9375 37.375 43.6258 37.375 43.25C37.375 42.8742 37.6867 42.5625 38.0625 42.5625H44.9375C45.3133 42.5625 45.625 42.8742 45.625 43.25C45.625 43.6258 45.3133 43.9375 44.9375 43.9375Z" fill="white"/>
</g>
<defs>
<filter id="filter0_dd_7_128" x="0" y="0" width="78" height="79" filterUnits="userSpaceOnUse" color-interpolation-filters="sRGB">
<feFlood flood-opacity="0" result="BackgroundImageFix"/>
<feColorMatrix in="SourceAlpha" type="matrix" values="0 0 0 0 0 0 0 0 0 0 0 0 0 0 0 0 0 0 127 0" result="hardAlpha"/>
<feOffset dx="2" dy="4"/>
<feGaussianBlur stdDeviation="6"/>
<feColorMatrix type="matrix" values="0 0 0 0 0.123289 0 0 0 0 0.0416565 0 0 0 0 0.19008 0 0 0 1 0"/>
<feBlend mode="normal" in2="BackgroundImageFix" result="effect1_dropShadow_7_128"/>
<feColorMatrix in="SourceAlpha" type="matrix" values="0 0 0 0 0 0 0 0 0 0 0 0 0 0 0 0 0 0 127 0" result="hardAlpha"/>
<feOffset dx="-3" dy="-2"/>
<feGaussianBlur stdDeviation="8"/>
<feColorMatrix type="matrix" values="0 0 0 0 0.542892 0 0 0 0 0.574999 0 0 0 0 0.62851 0 0 0 0.299771 0"/>
<feBlend mode="normal" in2="effect1_dropShadow_7_128" result="effect2_dropShadow_7_128"/>
<feBlend mode="normal" in="SourceGraphic" in2="effect2_dropShadow_7_128" result="shape"/>
</filter>
<filter id="filter1_dii_7_128" x="-47.6667" y="-48.6667" width="178.324" height="178.333" filterUnits="userSpaceOnUse" color-interpolation-filters="sRGB">
<feFlood flood-opacity="0" result="BackgroundImageFix"/>
<feColorMatrix in="SourceAlpha" type="matrix" values="0 0 0 0 0 0 0 0 0 0 0 0 0 0 0 0 0 0 127 0" result="hardAlpha"/>
<feOffset dy="2"/>
<feGaussianBlur stdDeviation="2"/>
<feComposite in2="hardAlpha" operator="out"/>
<feColorMatrix type="matrix" values="0 0 0 0 0.0745098 0 0 0 0 0.0627451 0 0 0 0 0.0862745 0 0 0 0.8 0"/>
<feBlend mode="normal" in2="BackgroundImageFix" result="effect1_dropShadow_7_128"/>
<feBlend mode="normal" in="SourceGraphic" in2="effect1_dropShadow_7_128" result="shape"/>
<feColorMatrix in="SourceAlpha" type="matrix" values="0 0 0 0 0 0 0 0 0 0 0 0 0 0 0 0 0 0 127 0" result="hardAlpha"/>
<feOffset dy="-1"/>
<feGaussianBlur stdDeviation="1"/>
<feComposite in2="hardAlpha" operator="arithmetic" k2="-1" k3="1"/>
<feColorMatrix type="matrix" values="0 0 0 0 1 0 0 0 0 1 0 0 0 0 1 0 0 0 1 0"/>
<feBlend mode="normal" in2="shape" result="effect2_innerShadow_7_128"/>
<feColorMatrix in="SourceAlpha" type="matrix" values="0 0 0 0 0 0 0 0 0 0 0 0 0 0 0 0 0 0 127 0" result="hardAlpha"/>
<feOffset/>
<feGaussianBlur stdDeviation="2.5"/>
<feComposite in2="hardAlpha" operator="arithmetic" k2="-1" k3="1"/>
<feColorMatrix type="matrix" values="0 0 0 0 1 0 0 0 0 1 0 0 0 0 1 0 0 0 0.4 0"/>
<feBlend mode="normal" in2="effect2_innerShadow_7_128" result="effect3_innerShadow_7_128"/>
</filter>
<clipPath id="bgblur_0_7_128_clip_path" transform="translate(47.6667 48.6667)"><path d="M45.3408 31.3333H37.6591C34.3225 31.3333 32.3333 33.3225 32.3333 36.6591V44.3316C32.3333 47.6775 34.3225 49.6666 37.6591 49.6666H45.3316C48.6683 49.6666 50.6575 47.6775 50.6575 44.3408V36.6591C50.6666 33.3225 48.6775 31.3333 45.3408 31.3333Z"/>
</clipPath><linearGradient id="paint0_linear_7_128" x1="1.50793" y1="33.4611" x2="36.9231" y2="77.6422" gradientUnits="userSpaceOnUse">
<stop stop-color="#5B1B97"/>
<stop offset="1" stop-color="#140326"/>
</linearGradient>
<linearGradient id="paint1_linear_7_128" x1="11.1426" y1="37.2885" x2="42.2417" y2="70.1854" gradientUnits="userSpaceOnUse">
<stop stop-color="#140326"/>
<stop offset="1" stop-color="#5B1B97"/>
</linearGradient>
</defs>
</svg>
