<svg width="40" height="40" viewBox="0 0 40 40" fill="none" xmlns="http://www.w3.org/2000/svg">
<rect x="40" y="40" width="40" height="40" rx="16" transform="rotate(-180 40 40)" fill="#050926" fill-opacity="0.5"/>
<path d="M22.9889 20.0511C22.9889 19.9139 22.9619 19.778 22.9094 19.6512C22.8569 19.5244 22.7799 19.4092 22.6829 19.3121L18.7829 15.4121C18.587 15.2162 18.3214 15.1062 18.0444 15.1062C17.7674 15.1062 17.5018 15.2162 17.3059 15.4121C17.11 15.608 17 15.8736 17 16.1506C17 16.4276 17.11 16.6932 17.3059 16.8891L19.7059 20.0531L17.3059 23.2171C17.11 23.413 17 23.6786 17 23.9556C17 24.2326 17.11 24.4983 17.3059 24.6941C17.5018 24.89 17.7674 25 18.0444 25C18.3214 25 18.587 24.89 18.7829 24.6941L22.6829 20.7941C22.7804 20.6966 22.8577 20.5807 22.9102 20.4532C22.9628 20.3257 22.9895 20.189 22.9889 20.0511Z" fill="white"/>
</svg>
